; Main game music
;
;              Channel
; Seq.    1       2       3
; ====    ====    ====    ====
; 0       D4      D4      B2 
; 1       ----    ----    ---- 
; 2       C#4     C#4     A#2
; 3       ----    ----    ----
; 4       C4      C4      A2
; 5       D4      D4      ----
; 6       F#4     F#4     D3
; 7       C4      C4      ----
; 8       D4      D4      D2
; 9       F#4     F#4     ----
; 10      C4      C4      D3
; 11      D4      D4      ----
; 12      F#4     F#4     A2
; 13      C4      C4      ----
; 14      D4      D4      D3
; 15      F#4     F#4     ----
; 16      ----    ----    D2
; 17      E4      E4      ----
; 18      D4      D4      D3
; 19      C4      C4      ----
; 20      A#3     A#3     G2
; 21      B3      B3      ----
; 22      E4      E4      D3
; 23      A#3     A#3     ----
; 24      B3      B3      D2
; 25      E4      E4      ----
; 26      A#3     A#3     D3
; 27      B3      B3      ----
; 28      E4      E4      G2
; 29      A#3     A#3     ----
; 30      B3      B3      D3
; 31      E4      E4      ----
; 32      ----    ----    D2
; 33      D4      D4      ----
; 34      B3      B3      D3
; 35      G3      G3      ----
; 36      C4      C4      A2
; 37      ----    ----    ----
; 38      B3      B3      D3
; 39      C4      C4      ---- 
; 40      ----    ----    D2
; 41      B3      B3      ----
; 42      C4      C4      D3
; 43      ----    ----    ----
; 44      A3      A3      F#2
; 45      ----    ----    ----
; 46      G#3     G#3     D3
; 47      A3      A3      ----
; 48      ----    ----    D2
; 49      G#3     G#3     ----
; 50      A3      A3      D3
; 51      ----    ----    ----
; 52      G3      G3      G2
; 53      C#3     C#3     ----
; 54      D3      D3      ----
; 55      G3      G3      ----
; 56      B3      B3      ----
; 57      F#3     F#3     ----
; 58      G3      G3      ----
; 59      B3      B3      ----
; 60      D4      D4      ----
; 61      A#3     A#3     ----
; 62      B3      B3      ----
; 63      D4      D4      ----
; 64      G4      G4      ----
; 65      ----    ----    ----
; 66      B3      B3      G#2
; 67      ----    ----    ----
; 68      C4      C4      A2
; 69      D4      D4      ----
; 70      F#4     F#4     D3
; 71      C4      C4      ----
; 72      D4      D4      D2
; 73      F#4     F#4     ----
; 74      C4      C4      D3
; 75      D4      D4      ----
; 76      F#4     F#4     A2
; 77      C4      C4      ----
; 78      D4      D4      D3
; 79      F#4     F#4     ----
; 80      ----    ----    D2
; 81      E4      E4      ----
; 82      D4      D4      D3
; 83      C4      C4      ----
; 84      A#3     A#3     G2
; 85      B3      B3      ----
; 86      E4      E4      D3
; 87      A#3     A#3     ---- 
; 88      B3      B3      D2
; 89      E4      E4      ----
; 90      A#3     A#3     D3
; 91      B3      B3      ----
; 92      E4      E4      G2
; 93      A#3     A#3     ----
; 94      B3      B3      D3
; 95      E4      E4      ----
; 96      ----    ----    D2
; 97      D4      D4      ----
; 98      C4      C4      D3
; 99      B3      B3      ----
; 100     E4      E4      G#2
; 101     E3      E3      ----
; 102     G#3     G#3     D3
; 103     E4      E4      ----
; 104     ----    ----    E2
; 105     D4      D4      ----
; 106     C4      C4      D3
; 107     B3      B3      ----
; 108     A3      A3      A2
; 109     G#3     G#3     ----
; 110     A3      A3      E3
; 111     E4      E4      ----
; 112     ----    ----    E2
; 113     D4      D4      ----
; 114     C4      C4      C3
; 115     A3      A3      ----
; 116     B3      B3      D2
; 117     D3      D3      ----
; 118     G3      G3      B2
; 119     B3      B3      ----
; 120     ----    ----    D2
; 121     D3      D3      ----
; 122     A3      A3      C3
; 123     ----    ----    ----
; 124     G3      G3      B2
; 125     ----    ----    ----
; 126     ----    ----    ----
; 127     ----    ----    ----
; 128     G4      G4      G2 
; 129     ----    ----    ----
; 130     ----    ----    ----
; 131     ----    ----    ----
; 132     B4      B4      G2
; 133     D5      D5      ----
; 134     G5      G5      D3
; 135     G4      G4      ----
; 136     B4      B4      D2
; 137     D5      D5      ----
; 138     D4      D4      D3
; 139     G4      G4      ----
; 140     B4      B4      G2
; 141     B3      B3      ----
; 142     D4      D4      D3
; 143     G4      G4      ----
; 144     G3      G3      D2
; 145     B3      B3      ----
; 146     D4      D4      D3
; 147     D3      D3      ----
; 148     <F#3    <F#3    A2
; 149     ----    ----    ----
; 150     F3      F3      D3
; 151     <F#3    <F#3    ----
; 152     ----    ----    D2
; 153     F3      F3      ----
; 154     <F#3    <F#3    D3
; 155     ----    ----    ----
; 156     <F#3    <F#3    A2
; 157     G3      G3      ----
; 158     G#3     G#3     B2
; 159     A3      A3      ----
; 160     ----    ----    C3
; 161     G#3     G#3     ----
; 162     A3      A3      D2
; 163     ----    ----    ----
; 164     C5      C5      A2
; 165     D5      D5      ----
; 166     F#5     F#5     D3
; 167     A4      A4      ----
; 168     C5      C5      D2
; 169     D5      D5      ----
; 170     F#4     F#4     D3 
; 171     A4      A4      ----
; 172     C5      C5      A2
; 173     D4      D4      ----
; 174     F#4     F#4     D3
; 175     A4      A4      ----
; 176     C4      C4      D2
; 177     C4      D4      ----
; 178     F#4     F#4     D3
; 179     A3      A3      ----
; 180     B3      B3      G2
; 181     ----    ----    ----
; 182     A#3     A#3     D3
; 183     B3      B3      ----
; 184     ----    ----    D2
; 185     A#3     A#3     ----
; 186     B3      B3      D3
; 187     ----    ----    ----
; 188     B3      B3      G2
; 189     C4      C4      ----
; 190     C#4     C#4     A2
; 191     D4      D4      ----
; 192     ----    ----    A#2
; 193     C#4     C#4     ----
; 194     D4      D4      B2
; 195     ----    ----    ----
; 196     G#4     G#4     E2
; 197     B4      B4      ----
; 198     D5      D5      D3
; 199     E4      E4      ----
; 200     G#4     G#4     E2
; 201     B4      B4      ----
; 202     D4      D4      D3
; 203     E4      E4      ----
; 204     G#4     G#4     E2
; 205     B3      B3      ----
; 206     D4      D4      G#2
; 207     E4      E4      ----
; 208     G#3     G#3     B2
; 209     ----    ----    ----
; 210     ----    ----    D3
; 211     ----    ----    ----
; 212     A4      A4      A2
; 213     C5      C5      ----
; 214     E5      E5      E3 
; 215     E4      E4      ----
; 216     A4      A4      E2
; 217     C5      C5      ----
; 218     C4      C4      C3
; 219     E4      E4      ----
; 220     A4      A4      C2
; 221     A3      A3      ----
; 222     C4      C4      A2
; 223     E4      E4      ----
; 224     E3      E3      C#2
; 225     ----    ----    ----
; 226     ----    ----    A#2
; 227     ----    ----    ----
; 228     B4      B4      B2
; 229     D5      D5      ----
; 230     G5      G5      ----
; 231     G4      G4      ----
; 232     B4      B4      ----
; 233     D5      D5      ----
; 234     D4      D4      ----
; 235     G4      G4      ----
; 236     B4      B4      ----
; 237     B3      B3      ----
; 238     D4      D4      ----
; 239     G4      G4      ----
; 240     G3      G3      ----
; 241     B3      B3      ----
; 242     D4      D4      ----
; 243     G3      G3      ----
; 244     D3      D3      D2
; 245     <F#3    <F#3    ----
; 246     A3      A3      C3
; 247     D4      D4      ----
; 248     ----    ----    D2
; 249     C4      C4      ----
; 250     A3      A3      C3
; 251     ----    ----    ----
; 252     G3      G3      B2
; 253     ----    ----    ----
; 254     ----    ----    ----
; 255     ----    ----    ----

; Hex to note look up
; "$00": "----"
; "$35": "C2"
; "$39": "C#2"
; "$3D": "D2"
; "$45": "E2"
; "$4D": "F#2"
; "$51": "G2"
; "$55": "G#2"
; "$59": "A2"
; "$5D": "A#2"
; "$61": "B2"
; "$65": "C3"
; "$69": "C#3"
; "$6D": "D3"
; "$75": "E3"
; "$79": "F3"
; "$7C": "<F#3"
; "$7D": "F#3"
; "$81": "G3"
; "$85": "G#3"
; "$89": "A3"
; "$8D": "A#3"
; "$91": "B3"
; "$95": "C4"
; "$99": "C#4"
; "$9D": "D4"
; "$A1": "D#4"
; "$A5": "E4"
; "$A9": "F4"
; "$AD": "F#4"
; "$B1": "G4"
; "$B5": "G#4"
; "$B9": "A4"
; "$C1": "B4"
; "$C5": "C5"
; "$CD": "D5"
; "$D5": "E5"
; "$DD": "F#5"
; "$E1": "G5"

;0A00
.data_first_chord_note
        EQUB    $9D,$00,$99,$00,$95,$9D,$AD,$95
        EQUB    $9D,$AD,$95,$9D,$AD,$95,$9D,$AD
        EQUB    $00,$A5,$9D,$95,$8D,$91,$A5,$8D
        EQUB    $91,$A5,$8D,$91,$A5,$8D,$91,$A5
        EQUB    $00,$9D,$91,$81,$95,$00,$91,$95
        EQUB    $00,$91,$95,$00,$89,$00,$85,$89
        EQUB    $00,$85,$89,$00,$81,$69,$6D,$81
        EQUB    $91,$7D,$81,$91,$9D,$8D,$91,$9D
        EQUB    $B1,$00,$91,$00,$95,$9D,$AD,$95
        EQUB    $9D,$AD,$95,$9D,$AD,$95,$9D,$AD
        EQUB    $00,$A5,$9D,$95,$8D,$91,$A5,$8D
        EQUB    $91,$A5,$8D,$91,$A5,$8D,$91,$A5
        EQUB    $00,$9D,$95,$91,$A5,$75,$85,$A5
        EQUB    $00,$9D,$95,$91,$89,$85,$89,$A5
        EQUB    $00,$9D,$95,$89,$91,$6D,$81,$91
        EQUB    $00,$6D,$89,$00,$81,$00,$00,$00
        EQUB    $B1,$00,$00,$00,$C1,$CD,$E1,$B1
        EQUB    $C1,$CD,$9D,$B1,$C1,$91,$9D,$B1
        EQUB    $81,$91,$9D,$6D,$7C,$00,$79,$7C
        EQUB    $00,$79,$7C,$00,$7C,$81,$85,$89
        EQUB    $00,$85,$89,$00,$C5,$CD,$DD,$B9
        EQUB    $C5,$CD,$AD,$B9,$C5,$9D,$AD,$B9
        EQUB    $95,$95,$AD,$89,$91,$00,$8D,$91
        EQUB    $00,$8D,$91,$00,$91,$95,$99,$9D
        EQUB    $00,$99,$9D,$00,$B5,$C1,$CD,$A5
        EQUB    $B5,$C1,$9D,$A5,$B5,$91,$9D,$A5
        EQUB    $85,$00,$00,$00,$B9,$C5,$D5,$A5
        EQUB    $B9,$C5,$95,$A5,$B9,$89,$95,$A5
        EQUB    $75,$00,$00,$00,$C1,$CD,$E1,$B1
        EQUB    $C1,$CD,$9D,$B1,$C1,$91,$9D,$B1
        EQUB    $81,$91,$9D,$81,$6D,$7C,$89,$9D
        EQUB    $00,$95,$89,$00,$81,$00,$00,$00
;0B00
.data_second_chord_note
        EQUB    $9D,$00,$99,$00,$95,$9D,$AD,$95
        EQUB    $9D,$AD,$95,$9D,$AD,$95,$9D,$AD
        EQUB    $00,$A5,$9D,$95,$8D,$91,$A5,$8D
        EQUB    $91,$A5,$8D,$91,$A5,$8D,$91,$A5
        EQUB    $00,$9D,$91,$81,$95,$00,$91,$95
        EQUB    $00,$91,$95,$00,$89,$00,$85,$89
        EQUB    $00,$85,$89,$00,$81,$69,$6D,$81
        EQUB    $91,$7D,$81,$91,$9D,$8D,$91,$9D
        EQUB    $B1,$00,$91,$00,$95,$9D,$AD,$95
        EQUB    $9D,$AD,$95,$9D,$AD,$95,$9D,$AD
        EQUB    $00,$A5,$9D,$95,$8D,$91,$A5,$8D
        EQUB    $91,$A5,$8D,$91,$A5,$8D,$91,$A5
        EQUB    $00,$9D,$95,$91,$A5,$75,$85,$A5
        EQUB    $00,$9D,$95,$91,$89,$85,$89,$A5
        EQUB    $00,$9D,$95,$89,$91,$6D,$81,$91
        EQUB    $00,$6D,$89,$00,$81,$00,$00,$00
        EQUB    $B1,$00,$00,$00,$C1,$CD,$E1,$B1
        EQUB    $C1,$CD,$9D,$B1,$C1,$91,$9D,$B1
        EQUB    $81,$91,$9D,$6D,$7C,$00,$79,$7C
        EQUB    $00,$79,$7C,$00,$7C,$81,$85,$89
        EQUB    $00,$85,$89,$00,$C5,$CD,$DD,$B9
        EQUB    $C5,$CD,$AD,$B9,$C5,$9D,$AD,$B9
        EQUB    $95,$9D,$AD,$89,$91,$00,$8D,$91
        EQUB    $00,$8D,$91,$00,$91,$95,$99,$9D
        EQUB    $00,$99,$9D,$00,$B5,$C1,$CD,$A5
        EQUB    $B5,$C1,$9D,$A5,$B5,$91,$9D,$A5
        EQUB    $85,$00,$00,$00,$B9,$C5,$D5,$A5
        EQUB    $B9,$C5,$95,$A5,$B9,$89,$95,$A5
        EQUB    $75,$00,$00,$00,$C1,$CD,$E1,$B1
        EQUB    $C1,$CD,$9D,$B1,$C1,$91,$9D,$B1
        EQUB    $81,$91,$9D,$81,$6D,$7C,$89,$9D
        EQUB    $00,$95,$89,$00,$81,$00,$00,$00
;L0C00
.data_third_chord_note
        EQUB    $61,$00,$5D,$00,$59,$00,$6D,$00
        EQUB    $3D,$00,$6D,$00,$59,$00,$6D,$00
        EQUB    $3D,$00,$6D,$00,$51,$00,$6D,$00
        EQUB    $3D,$00,$6D,$00,$51,$00,$6D,$00
        EQUB    $3D,$00,$6D,$00,$59,$00,$6D,$00
        EQUB    $3D,$00,$6D,$00,$4D,$00,$6D,$00
        EQUB    $3D,$00,$6D,$00,$51,$00,$00,$00
        EQUB    $00,$00,$00,$00,$00,$00,$00,$00
        EQUB    $00,$00,$55,$00,$59,$00,$6D,$00
        EQUB    $3D,$00,$6D,$00,$59,$00,$6D,$00
        EQUB    $3D,$00,$6D,$00,$51,$00,$6D,$00
        EQUB    $3D,$00,$6D,$00,$51,$00,$6D,$00
        EQUB    $3D,$00,$6D,$00,$55,$00,$6D,$00
        EQUB    $45,$00,$6D,$00,$59,$00,$75,$00
        EQUB    $45,$00,$65,$00,$3D,$00,$61,$00
        EQUB    $3D,$00,$65,$00,$61,$00,$00,$00
        EQUB    $51,$00,$00,$00,$51,$00,$6D,$00
        EQUB    $3D,$00,$6D,$00,$51,$00,$6D,$00
        EQUB    $3D,$00,$6D,$00,$59,$00,$6D,$00
        EQUB    $3D,$00,$6D,$00,$59,$00,$61,$00
        EQUB    $65,$00,$3D,$00,$59,$00,$6D,$00
        EQUB    $3D,$00,$6D,$00,$59,$00,$6D,$00
        EQUB    $3D,$00,$6D,$00,$51,$00,$6D,$00
        EQUB    $3D,$00,$6D,$00,$51,$00,$59,$00
        EQUB    $5D,$00,$61,$00,$45,$00,$6D,$00
        EQUB    $45,$00,$6D,$00,$45,$00,$55,$00
        EQUB    $61,$00,$6D,$00,$59,$00,$75,$00
        EQUB    $45,$00,$65,$00,$35,$00,$59,$00
        EQUB    $39,$00,$5D,$00,$61,$00,$00,$00
        EQUB    $00,$00,$00,$00,$00,$00,$00,$00
        EQUB    $00,$00,$00,$00,$3D,$00,$65,$00
        EQUB    $3D,$00,$65,$00,$61,$00,$00,$00
